<svg xmlns="http://www.w3.org/2000/svg" version="1.1" xmlns:xlink="http://www.w3.org/1999/xlink" xmlns:svgjs="http://svgjs.dev/svgjs" width="1400" height="90" preserveAspectRatio="none" viewBox="0 0 1400 90"><g mask="url(&quot;#SvgjsMask1075&quot;)" fill="none"><rect width="1400" height="90" x="0" y="0" fill="rgba(0, 0, 0, 1)"></rect><path d="M264.698,64.435C273.772,64.503,280.579,56.823,284.642,48.71C288.258,41.489,287.524,33.328,283.888,26.117C279.769,17.949,273.821,9.836,264.698,9.163C254.598,8.418,244.38,13.795,239.887,22.871C235.749,31.229,240.485,40.407,245.265,48.415C249.877,56.141,255.7,64.368,264.698,64.435" fill="rgba(59, 57, 57, 0.42)" class="triangle-float3"></path><path d="M531.9574831109296 85.37248072906824L547.7664202234898 75.10603692778975 521.6910393096512 69.56354361650807z" fill="rgba(59, 57, 57, 0.42)" class="triangle-float2"></path><path d="M499.49987013397254 31.105967221013692L518.5099180559054 14.58078467722651 501.9847355121182-4.4292632447063625 482.97468759018534 12.095919299080819z" fill="rgba(59, 57, 57, 0.42)" class="triangle-float2"></path><path d="M1018.6508648235274 50.48484669569349L999.8303245560276 69.30538696319329 1037.4714050910272 69.30538696319327z" fill="rgba(59, 57, 57, 0.42)" class="triangle-float2"></path><path d="M44.392739484018094 57.4598193381631L43.994670685134835 34.65447312373866 21.189324470710396 35.05254192262192 21.587393269593655 57.85788813704636z" fill="rgba(59, 57, 57, 0.42)" class="triangle-float1"></path><path d="M455.9098419323176 17.25277128225219L477.22339714801757 21.395706733903772 481.36633259966914 0.08215151820379418 460.05277738396916-4.060783933447787z" fill="rgba(59, 57, 57, 0.42)" class="triangle-float3"></path><path d="M767.988,104.981C774.683,105.087,782.014,104.235,785.603,98.582C789.391,92.615,788.395,84.783,784.595,78.824C781.065,73.289,774.553,70.964,767.988,70.96C761.414,70.956,754.789,73.203,751.342,78.801C747.739,84.653,747.63,92.238,751.317,98.037C754.779,103.482,761.537,104.878,767.988,104.981" fill="rgba(59, 57, 57, 0.42)" class="triangle-float2"></path><path d="M896.462,98.161C903.159,97.962,908.269,92.646,911.274,86.658C913.957,81.311,913.765,75.021,910.632,69.925C907.645,65.066,902.166,62.609,896.462,62.566C890.673,62.522,885.093,64.868,881.917,69.708C878.394,75.077,877.121,81.867,880.044,87.585C883.22,93.797,889.488,98.368,896.462,98.161" fill="rgba(59, 57, 57, 0.42)" class="triangle-float2"></path><path d="M503.693,28.461C509.968,28.285,515.957,25.95,519.485,20.758C523.542,14.788,526.238,6.957,522.504,0.78C518.847,-5.27,510.76,-5.566,503.693,-5.367C497.086,-5.181,490.208,-3.769,486.632,1.79C482.786,7.769,482.462,15.697,486.293,21.686C489.888,27.306,497.025,28.648,503.693,28.461" fill="rgba(59, 57, 57, 0.42)" class="triangle-float1"></path><path d="M1345.2838984436191 82.27325354655947L1361.2933011808539 82.27325354655947 1353.2885998122365 58.25914944070749z" fill="rgba(59, 57, 57, 0.42)" class="triangle-float3"></path><path d="M331.3971993897588 100.33197291465578L349.40722849549667 80.32980919738526 329.4050647782262 62.319780091647374 311.39503567248823 82.3219438089179z" fill="rgba(59, 57, 57, 0.42)" class="triangle-float2"></path><path d="M42.876920097663074 43.94578226879328L48.045466600771086 27.04022840534537 25.971366234215164 38.77723576568527z" fill="rgba(59, 57, 57, 0.42)" class="triangle-float3"></path><path d="M51.83684523963811 0.8257569065310832L42.26348782898264 10.070640695217186 60.91749221733953 19.808234916857334z" fill="rgba(59, 57, 57, 0.42)" class="triangle-float1"></path><path d="M712.0097685257924 47.271423118257594L706.0365335973902 61.343482755955 720.1085932350876 67.3167176843572 726.0818281634898 53.244658046659794z" fill="rgba(59, 57, 57, 0.42)" class="triangle-float2"></path><path d="M1128.8759408592666 52.28433659979064L1128.8759408592666 66.09207817052503 1142.683682430001 66.09207817052503 1142.683682430001 52.28433659979064z" fill="rgba(59, 57, 57, 0.42)" class="triangle-float2"></path><path d="M596.645,120.603C604.663,120.714,611.666,115.492,615.521,108.46C619.226,101.702,619.082,93.506,615.125,86.892C611.272,80.451,604.149,77.022,596.645,76.905C588.912,76.785,581.019,79.609,577.141,86.301C573.254,93.008,574.824,101.208,578.656,107.947C582.54,114.778,588.788,120.494,596.645,120.603" fill="rgba(59, 57, 57, 0.42)" class="triangle-float2"></path><path d="M688.8067371742815 9.87752225825113L680.9561748090971 24.04031167078035 706.1256401104831 28.73476051229233z" fill="rgba(59, 57, 57, 0.42)" class="triangle-float1"></path><path d="M797.9711326624557 2.4647609404388664L796.117559626318 28.972090312685516 824.4784620347024 4.318333976576648z" fill="rgba(59, 57, 57, 0.42)" class="triangle-float1"></path><path d="M1156.57,36.968C1161.181,36.608,1164.095,32.503,1166.314,28.445C1168.414,24.605,1169.71,20.266,1167.874,16.293C1165.715,11.62,1161.716,7.196,1156.57,7.356C1151.58,7.511,1148.862,12.605,1146.423,16.961C1144.065,21.172,1141.591,25.903,1143.774,30.207C1146.113,34.818,1151.416,37.371,1156.57,36.968" fill="rgba(59, 57, 57, 0.42)" class="triangle-float2"></path><path d="M763.1634858552023 65.25884686920979L734.4864219942367 73.99642943283341 753.3374791772269 92.20068374769336z" fill="rgba(59, 57, 57, 0.42)" class="triangle-float3"></path></g><defs><mask id="SvgjsMask1075"><rect width="1400" height="90" fill="#ffffff"></rect></mask><style>
                @keyframes float1 {
                    0%{transform: translate(0, 0)}
                    50%{transform: translate(-10px, 0)}
                    100%{transform: translate(0, 0)}
                }

                .triangle-float1 {
                    animation: float1 5s infinite;
                }

                @keyframes float2 {
                    0%{transform: translate(0, 0)}
                    50%{transform: translate(-5px, -5px)}
                    100%{transform: translate(0, 0)}
                }

                .triangle-float2 {
                    animation: float2 4s infinite;
                }

                @keyframes float3 {
                    0%{transform: translate(0, 0)}
                    50%{transform: translate(0, -10px)}
                    100%{transform: translate(0, 0)}
                }

                .triangle-float3 {
                    animation: float3 6s infinite;
                }
            </style></defs></svg>